<svg width="924" height="153" viewBox="0 0 924 153" fill="none" xmlns="http://www.w3.org/2000/svg">
<g id="PP-Logo">
<path id="PRIDE" fill-rule="evenodd" clip-rule="evenodd" d="M17.496 78.756V99.6H0V24H32.724C52.92 24 65.556 34.476 65.556 51.432C65.556 68.28 52.92 78.756 32.724 78.756H17.496ZM17.496 64.5H31.752C42.444 64.5 47.844 59.64 47.844 51.432C47.844 43.116 42.444 38.256 31.752 38.256H17.496V64.5ZM95.472 99.6V78.54H111.564L126.144 99.6H144.936L127.98 75.3C137.808 71.088 143.532 62.772 143.532 51.432C143.532 34.476 130.896 24 110.7 24H77.976V99.6H95.472ZM95.472 64.608H109.728C120.42 64.608 125.82 59.64 125.82 51.432C125.82 43.116 120.42 38.256 109.728 38.256H95.472V64.608ZM174.852 99.6V24H157.356V99.6H174.852ZM268.812 61.8C268.812 84.696 251.856 99.6 227.124 99.6H192.78V24H227.124C251.856 24 268.812 38.904 268.812 61.8ZM226.26 85.236H210.276V38.364H226.26C241.272 38.364 251.1 47.328 251.1 61.8C251.1 76.272 241.272 85.236 226.26 85.236ZM340.524 85.56V99.6H281.988V24H339.12V38.04H299.376V54.456H334.476V68.064H299.376V85.56H340.524Z" fill="#ffffff"/>
<path id="PLACES" fill-rule="evenodd" clip-rule="evenodd" d="M781.896 88.692C774.768 97.44 763.86 102.192 750.684 102.192C727.248 102.192 709.752 85.884 709.752 63.096C709.752 40.308 727.248 24 750.792 24C763.86 24 774.768 28.752 781.896 37.392L770.664 47.76C765.588 41.928 759.216 38.904 751.656 38.904C737.508 38.904 727.464 48.84 727.464 63.096C727.464 77.352 737.508 87.288 751.656 87.288C759.216 87.288 765.588 84.264 770.664 78.324L781.896 88.692ZM506.496 80.052V100.896H489V25.296H521.724C541.92 25.296 554.556 35.772 554.556 52.728C554.556 69.576 541.92 80.052 521.724 80.052H506.496ZM506.496 65.796H520.752C531.444 65.796 536.844 60.936 536.844 52.728C536.844 44.412 531.444 39.552 520.752 39.552H506.496V65.796ZM622.38 100.896V86.64H584.472V25.296H566.976V100.896H622.38ZM647.544 84.696L640.848 100.896H622.92L656.616 25.296H673.896L707.7 100.896H689.34L682.644 84.696H647.544ZM677.136 71.412H653.16L665.148 42.468L677.136 71.412ZM852.204 100.896V86.856H811.056V69.36H846.156V55.752H811.056V39.336H850.8V25.296H793.668V100.896H852.204ZM923.052 78.756C923.052 91.392 912.576 102.192 890.976 102.192C878.988 102.192 866.892 98.628 860.196 93.444L866.136 80.268C872.508 84.912 882.012 88.152 891.084 88.152C901.452 88.152 905.664 84.696 905.664 80.052C905.664 74.1785 898.088 72.4186 889.227 70.36C876.743 67.4598 861.708 63.9668 861.708 47.544C861.708 34.692 872.076 24 893.568 24C903.072 24 912.792 26.268 919.812 30.696L914.412 43.98C907.392 39.984 900.156 38.04 893.46 38.04C883.092 38.04 879.096 41.928 879.096 46.68C879.096 52.4574 886.655 54.1861 895.503 56.2097C907.993 59.066 923.052 62.51 923.052 78.756Z" fill="#ffffff"/>
<path id="LGBTQDIRECTORY" fill-rule="evenodd" clip-rule="evenodd" d="M697.984 147.685C703.956 147.685 707.033 144.216 707.033 139.608V137.38H698.346V141.001H701.811C701.707 142.444 700.725 143.735 698.139 143.735C694.933 143.735 693.822 141.457 693.822 138.52V138.317C693.822 135.051 695.399 133.076 698.01 133.076C699.975 133.076 701.087 133.962 701.345 135.659H706.594C706.232 130.95 702.354 129 697.984 129C692.426 129 688.289 132.722 688.289 138.241V138.444C688.289 143.862 691.702 147.685 697.984 147.685ZM687.307 147.381V143.356H680.326V129.279H675V147.381H687.307ZM724.666 142.343C724.666 145.584 722.52 147.381 717.944 147.381H709.619V129.279H717.866C722.235 129.279 724.097 131.203 724.097 134.013V134.114C724.097 136.14 723.037 137.482 720.968 138.013C723.244 138.393 724.666 139.735 724.666 142.242V142.343ZM716.806 136.469H714.789V132.722H716.806C718.409 132.722 719.081 133.279 719.081 134.519V134.621C719.081 135.912 718.461 136.469 716.806 136.469ZM714.789 143.913H716.987C718.667 143.913 719.443 143.153 719.443 141.811V141.71C719.443 140.343 718.693 139.634 716.832 139.634H714.789V143.913ZM735.834 147.381V133.279H740.617V129.279H725.726V133.279H730.509V147.381H735.834ZM759.31 147.533L756.363 150.419L753.364 147.457C752.614 147.609 751.838 147.685 751.011 147.685C745.039 147.685 741.316 143.887 741.316 138.444V138.241C741.316 132.722 745.556 129.025 751.088 129.025C756.725 129.025 760.887 132.494 760.887 138.115V138.317C760.887 141.482 759.62 144.064 757.448 145.71L759.31 147.533ZM749.511 143.482C747.857 142.849 746.848 141.153 746.848 138.418V138.216C746.848 134.925 748.477 133.076 751.088 133.076C753.7 133.076 755.354 134.975 755.354 138.191V138.393C755.354 140.191 754.915 141.533 754.139 142.444L752.484 140.798L749.511 143.482ZM790.283 138.317C790.283 143.963 786.87 147.381 780.355 147.381H773.659V129.279H780.381C786.948 129.279 790.283 132.494 790.283 138.115V138.317ZM780.2 143.381H778.985V133.279H780.148C783.354 133.279 784.75 134.747 784.75 138.191V138.393C784.75 141.76 783.354 143.381 780.2 143.381ZM798.324 129.279V147.381H792.972V129.279H798.324ZM807.243 147.381V140.9H808.484L812.233 147.381H817.818L813.397 139.887C815.336 139.153 816.732 137.71 816.732 135.127V135.026C816.732 131.203 814.043 129.279 809.208 129.279H801.969V147.381H807.243ZM807.243 137.532H808.95C810.734 137.532 811.613 136.798 811.613 135.33V135.228C811.613 133.76 810.682 133.178 808.976 133.178H807.243V137.532ZM833.175 147.381V143.381H825.264V140.089H831.236V136.393H825.264V133.279H832.761V129.279H819.989V147.381H833.175ZM852.85 140.571C852.488 145.254 849.023 147.685 844.24 147.685C837.777 147.685 834.597 143.988 834.597 138.444V138.241C834.597 132.671 838.63 129 844.034 129C848.842 129 852.178 131.177 852.617 135.963H847.162C846.955 134.114 845.921 133.102 844.059 133.102C841.681 133.102 840.181 134.925 840.181 138.216V138.418C840.181 141.685 841.603 143.533 844.137 143.533C845.998 143.533 847.317 142.571 847.576 140.571H852.85ZM863.786 147.381V133.279H868.569V129.279H853.677V133.279H858.46V147.381H863.786ZM888.839 138.317C888.839 143.887 884.935 147.685 878.962 147.685C872.99 147.685 869.267 143.887 869.267 138.444V138.241C869.267 132.722 873.507 129.025 879.04 129.025C884.676 129.025 888.839 132.494 888.839 138.115V138.317ZM879.066 143.609C876.506 143.609 874.8 141.71 874.8 138.418V138.216C874.8 134.925 876.429 133.076 879.04 133.076C881.651 133.076 883.306 134.975 883.306 138.191V138.393C883.306 141.634 881.677 143.609 879.066 143.609ZM896.698 140.9V147.381H891.424V129.279H898.663C903.498 129.279 906.187 131.203 906.187 135.026V135.127C906.187 137.71 904.79 139.153 902.851 139.887L907.272 147.381H901.688L897.939 140.9H896.698ZM898.405 137.532H896.698V133.178H898.43C900.137 133.178 901.068 133.76 901.068 135.228V135.33C901.068 136.798 900.188 137.532 898.405 137.532ZM918.26 139.634V147.381H912.934V139.634L906.91 129.279H912.676L915.804 135.38L918.933 129.279H924L918.26 139.634Z" fill="#ffffff"/>
<g id="Mark">
<path id="Fill 1" fill-rule="evenodd" clip-rule="evenodd" d="M369.495 51.2679C368.772 47.2095 369.054 45.1887 369.054 45.1887H369.057C369.057 45.1047 369.054 45.0207 369.054 44.9367C369.054 20.1183 388.909 0.00146484 413.401 0.00146484C437.892 0.00146484 457.747 20.1183 457.747 44.9367C457.747 45.0207 457.744 45.1047 457.744 45.1887H457.747C459.234 73.8087 413.649 120.001 413.649 120.001C391.5 96.8631 380.299 79.1679 374.656 66.8103C372.055 62.0871 370.269 56.8407 369.495 51.2679" fill="url(#paint0_linear)"/>
<g id="Fill 50" filter="url(#filter0_d)">
<path fill-rule="evenodd" clip-rule="evenodd" d="M388.971 44.2992H388.926C388.926 44.2992 388.431 46.4136 389.394 50.7216V50.7216C389.745 52.5504 390.29 54.312 391 55.98V55.98C393.871 63.552 400.339 74.8608 414.687 90.0912V90.0912V71.4C428.414 71.1312 439.465 59.7792 439.465 45.8064V45.8064C439.465 31.6632 428.149 20.1984 414.192 20.1984V20.1984C400.734 20.1984 389.74 30.8568 388.971 44.2992" fill="url(#paint1_linear)"/>
</g>
<path id="Fill 4" fill-rule="evenodd" clip-rule="evenodd" d="M413.63 19.5827C402.102 19.5827 392.389 27.4211 389.369 38.1299C389.256 38.1059 389.135 38.0915 389.012 38.0843C392.058 21.8315 406.123 9.5387 423.038 9.5387C442.18 9.5387 457.696 25.2755 457.696 44.6867C457.696 50.0723 456.496 55.1723 454.364 59.7347L454.366 59.7323C450.045 79.3019 413.63 120.001 413.63 120.001V78.5171C413.588 78.5051 413.55 78.4907 413.507 78.4787V70.7915C413.55 70.7915 413.588 70.7963 413.63 70.7963C427.577 70.7963 438.881 59.3315 438.881 45.1883C438.881 31.0451 427.577 19.5827 413.63 19.5827" fill="url(#paint2_linear)"/>
</g>
</g>
<defs>
<filter id="filter0_d" x="376.798" y="11.1984" width="74.6668" height="93.8928" filterUnits="userSpaceOnUse" color-interpolation-filters="sRGB">
<feFlood flood-opacity="0" result="BackgroundImageFix"/>
<feColorMatrix in="SourceAlpha" type="matrix" values="0 0 0 0 0 0 0 0 0 0 0 0 0 0 0 0 0 0 127 0"/>
<feOffset dy="1"/>
<feGaussianBlur stdDeviation="2"/>
<feColorMatrix type="matrix" values="0 0 0 0 0.133333 0 0 0 0 0.0941176 0 0 0 0 0.286275 0 0 0 0.747897 0"/>
<feBlend mode="normal" in2="BackgroundImageFix" result="effect1_dropShadow"/>
<feBlend mode="normal" in="SourceGraphic" in2="effect1_dropShadow" result="shape"/>
</filter>
<linearGradient id="paint0_linear" x1="519.425" y1="48.3648" x2="401.943" y2="16.2477" gradientUnits="userSpaceOnUse">
<stop stop-color="#1B1464"/>
<stop offset="1" stop-color="#A00DA7"/>
</linearGradient>
<linearGradient id="paint1_linear" x1="381.173" y1="45.6135" x2="426.008" y2="86.9674" gradientUnits="userSpaceOnUse">
<stop stop-color="white"/>
<stop offset="1" stop-color="#C8B8D6"/>
</linearGradient>
<linearGradient id="paint2_linear" x1="450.803" y1="-5.13737" x2="406.788" y2="-16.3195" gradientUnits="userSpaceOnUse">
<stop stop-color="#A00DA7"/>
<stop offset="1" stop-color="#1B1464"/>
</linearGradient>
</defs>
</svg>
