<svg width="83" height="8" viewBox="0 0 83 8" fill="none" xmlns="http://www.w3.org/2000/svg">
<path fill-rule="evenodd" clip-rule="evenodd" d="M7.66141 6.22832C9.65216 6.22832 10.6777 5.07212 10.6777 3.53613V2.79346H7.78206V4.00031H8.93687C8.9024 4.48135 8.57491 4.91177 7.71311 4.91177C6.64448 4.91177 6.27391 4.15222 6.27391 3.17324V3.10572C6.27391 2.01703 6.79961 1.35875 7.67002 1.35875C8.32499 1.35875 8.69557 1.65413 8.78175 2.21958H10.5312C10.4105 0.649839 9.11785 0 7.66141 0C5.80853 0 4.42965 1.2406 4.42965 3.0804V3.14792C4.42965 4.95396 5.56723 6.22832 7.66141 6.22832ZM4.10217 6.12705V4.78517H1.77531V0.0928341H0V6.12705H4.10217ZM16.5552 4.4476C16.5552 5.52785 15.8399 6.12705 14.3145 6.12705H11.5395V0.0928341H14.2887C15.7451 0.0928341 16.3656 0.734233 16.3656 1.67101V1.70477C16.3656 2.37993 16.0123 2.82722 15.3228 3.00445C16.0812 3.13104 16.5552 3.57833 16.5552 4.41384V4.4476ZM13.9353 2.48964H13.2631V1.2406H13.9353C14.4696 1.2406 14.6937 1.42627 14.6937 1.8398V1.87356C14.6937 2.30397 14.4869 2.48964 13.9353 2.48964ZM13.2631 4.97084H13.9956C14.5558 4.97084 14.8143 4.71766 14.8143 4.27037V4.23661C14.8143 3.78088 14.5644 3.54457 13.9439 3.54457H13.2631V4.97084ZM20.2782 6.12705V1.42627H21.8725V0.0928341H16.9085V1.42627H18.5029V6.12705H20.2782ZM28.1033 6.17769L27.1209 7.13978L26.1212 6.15237C25.8712 6.203 25.6127 6.22832 25.3369 6.22832C23.3462 6.22832 22.1052 4.9624 22.1052 3.14792V3.0804C22.1052 1.2406 23.5185 0.00843946 25.3628 0.00843946C27.2415 0.00843946 28.629 1.16465 28.629 3.03821V3.10572C28.629 4.16066 28.2067 5.02148 27.4828 5.57004L28.1033 6.17769ZM24.8371 4.82737C24.2855 4.61639 23.9494 4.05094 23.9494 3.13948V3.07196C23.9494 1.97483 24.4924 1.35875 25.3628 1.35875C26.2332 1.35875 26.7848 1.99171 26.7848 3.06352V3.13104C26.7848 3.73024 26.6383 4.17753 26.3797 4.48135L25.8282 3.93279L24.8371 4.82737ZM38.4277 3.10572C38.4277 4.98772 37.2901 6.12705 35.1184 6.12705H32.8863V0.0928341H35.127C37.316 0.0928341 38.4277 1.16465 38.4277 3.03821V3.10572ZM35.0667 4.79361H34.6616V1.42627H35.0494C36.1181 1.42627 36.5834 1.91576 36.5834 3.06352V3.13104C36.5834 4.25349 36.1181 4.79361 35.0667 4.79361ZM41.1079 0.0928341V6.12705H39.324V0.0928341H41.1079ZM44.0811 6.12705V3.96655H44.4948L45.7444 6.12705H47.6059L46.1322 3.62897C46.7785 3.38422 47.2439 2.90317 47.2439 2.04235V2.00859C47.2439 0.734233 46.3476 0.0928341 44.7361 0.0928341H42.323V6.12705H44.0811ZM44.0811 2.8441H44.6499C45.2445 2.8441 45.5375 2.59935 45.5375 2.10987V2.07611C45.5375 1.58662 45.2273 1.39251 44.6585 1.39251H44.0811V2.8441ZM52.725 6.12705V4.79361H50.0878V3.69648H52.0786V2.46432H50.0878V1.42627H52.5871V0.0928341H48.3298V6.12705H52.725ZM59.2833 3.85683C59.1626 5.41813 58.0078 6.22832 56.4135 6.22832C54.259 6.22832 53.1989 4.99616 53.1989 3.14792V3.0804C53.1989 1.22372 54.5434 0 56.3445 0C57.9475 0 59.0592 0.725794 59.2057 2.32085H57.3873C57.3183 1.70477 56.9736 1.36719 56.3531 1.36719C55.5603 1.36719 55.0604 1.97483 55.0604 3.07196V3.13948C55.0604 4.22817 55.5344 4.84425 56.379 4.84425C56.9995 4.84425 57.439 4.52355 57.5252 3.85683H59.2833ZM62.9287 6.12705V1.42627H64.523V0.0928341H59.559V1.42627H61.1534V6.12705H62.9287ZM71.2795 3.10572C71.2795 4.9624 69.9782 6.22832 67.9874 6.22832C65.9967 6.22832 64.7557 4.9624 64.7557 3.14792V3.0804C64.7557 1.2406 66.169 0.00843946 68.0133 0.00843946C69.892 0.00843946 71.2795 1.16465 71.2795 3.03821V3.10572ZM68.0219 4.86957C67.1687 4.86957 66.5999 4.23661 66.5999 3.13948V3.07196C66.5999 1.97483 67.1429 1.35875 68.0133 1.35875C68.8837 1.35875 69.4353 1.99171 69.4353 3.06352V3.13104C69.4353 4.21129 68.8923 4.86957 68.0219 4.86957ZM73.8994 3.96655V6.12705H72.1413V0.0928341H74.5544C76.1659 0.0928341 77.0622 0.734233 77.0622 2.00859V2.04235C77.0622 2.90317 76.5968 3.38422 75.9505 3.62897L77.4241 6.12705H75.5627L74.313 3.96655H73.8994ZM74.4682 2.8441H73.8994V1.39251H74.4768C75.0456 1.39251 75.3558 1.58662 75.3558 2.07611V2.10987C75.3558 2.59935 75.0628 2.8441 74.4682 2.8441ZM81.0868 3.54457V6.12705H79.3115V3.54457L77.3035 0.0928341H79.2253L80.2681 2.12674L81.3109 0.0928341H83L81.0868 3.54457Z" fill="#312D3F"/>
</svg>
