<svg width="135" height="93" viewBox="0 0 135 93" fill="none" xmlns="http://www.w3.org/2000/svg">
<g id="icon/money">
<path id="icon/money_2" fill-rule="evenodd" clip-rule="evenodd" d="M66.4296 86.5284C53.6452 89.7642 40.8608 93 28.0765 93C20.022 93 11.9633 91.7149 3.91095 88.3355C1.50097 87.3266 0 84.8418 0 82.22V16.36C0 12.5219 3.12215 9.7567 6.69475 9.7567C7.40064 9.7567 8.12294 9.86455 8.84322 10.093C15.2558 12.1273 21.6641 12.9411 28.0765 12.9411C40.8598 12.9411 53.6427 9.70581 66.4256 6.47054C79.2104 3.23476 91.9953 -0.0010137 104.781 0C112.835 0 120.894 1.28507 128.946 4.66245C131.356 5.67343 132.857 8.15619 132.859 10.78V76.6377C132.859 80.4761 129.737 83.2413 126.164 83.2413C125.459 83.2413 124.736 83.1332 124.016 82.905C117.603 80.8706 111.195 80.0569 104.783 80.0569C91.9983 80.0569 79.214 83.2927 66.4296 86.5284ZM111.307 10.4044C111.504 17.016 116.48 22.3698 122.893 23.1815V13.0325C119.214 11.6976 115.364 10.8549 111.307 10.4044ZM9.96429 33.3576V20.8045C14.141 21.8508 18.5004 22.3761 22.9842 22.6585C21.7636 28.7594 16.3996 33.3576 9.96429 33.3576ZM49.8214 46.5C49.8214 57.5043 57.2551 66.4286 66.4286 66.4286C75.5978 66.4286 83.0357 57.5085 83.0357 46.5C83.0357 35.4937 75.5998 26.5714 66.4286 26.5714C57.2573 26.5714 49.8214 35.4937 49.8214 46.5ZM122.893 72.1955C119.256 71.284 115.48 70.7734 111.617 70.4433C112.835 65.0294 117.325 60.9191 122.893 60.2133V72.1955ZM9.96429 79.9675C14.141 81.4851 18.5127 82.4192 23.1898 82.7949C22.8721 75.7099 17.0992 70.049 9.96429 70.049V79.9675Z" fill="white"/>
</g>
</svg>
