<svg width="96" height="93" viewBox="0 0 96 93" fill="none" xmlns="http://www.w3.org/2000/svg">
<g id="Open-Sign-White">
<path id="Open-Sign-White_2" fill-rule="evenodd" clip-rule="evenodd" d="M90.2058 40.7474H4.71693C2.11206 40.7474 0 42.865 0 45.4798V88.2676C0 90.8825 2.11206 93 4.71693 93H90.2058C92.8081 93 94.9175 90.8825 94.9175 88.2676V45.4798C94.9175 42.865 92.8081 40.7474 90.2058 40.7474ZM18.6959 77.1804C13.0774 77.1804 9.58763 73.3235 9.58763 67.1108C9.58763 60.9034 13.0774 57.0464 18.6959 57.0464C24.0576 57.0464 27.8041 61.1873 27.8041 67.1108C27.8041 73.0395 24.0576 77.1804 18.6959 77.1804ZM40.5474 70.024H36.5957V76.701H32.1186V57.5258H40.8574C44.8065 57.5258 46.9794 59.7471 46.9794 63.7775C46.9794 67.5138 44.394 70.024 40.5474 70.024ZM64.2371 76.701H49.8557V57.5258H63.8047V61.3277H54.0919V64.8514H63.0198V68.6534H54.0919V72.7442H64.2371V76.701ZM83.8918 76.701H79.4446L72.4397 64.833V76.701H68.0722V57.5258H72.5193L79.5296 69.4673V57.5258H83.8918V76.701ZM39.7264 61.3608H36.433V66.1546H39.7264C41.4025 66.1546 42.1856 65.3934 42.1856 63.7603C42.1856 62.1246 41.4025 61.3608 39.7264 61.3608ZM18.6972 60.8814C15.7841 60.8814 13.9021 63.235 13.9021 66.8711C13.9021 70.5124 15.7841 72.866 18.6972 72.866C21.6077 72.866 23.4897 70.5124 23.4897 66.8711C23.4897 63.235 21.6077 60.8814 18.6972 60.8814ZM30.0011 34.9948L40.0426 27.0282C42.253 28.3864 44.8374 29.1841 47.6114 29.1841C50.5647 29.1841 53.3075 28.2899 55.6036 26.7675L65.6634 34.9948H80.5361L61.3543 19.3144C61.8634 17.8311 62.1543 16.2461 62.1543 14.5907C62.1543 6.54589 55.6296 0 47.6114 0C39.5933 0 33.0712 6.54589 33.0712 14.5907C33.0712 16.4182 33.4218 18.1622 34.04 19.7758L14.8608 34.9948H30.0011ZM47.4574 9.10825C50.3661 9.10825 52.732 11.4741 52.732 14.3801C52.732 17.2888 50.3661 19.6546 47.4574 19.6546C44.5487 19.6546 42.1856 17.2888 42.1856 14.3801C42.1856 11.4741 44.5487 9.10825 47.4574 9.10825V9.10825Z" fill="white"/>
</g>
</svg>
