<svg width="145" height="27" viewBox="0 0 145 27" fill="none" xmlns="http://www.w3.org/2000/svg">
<path fill-rule="evenodd" clip-rule="evenodd" d="M97.632 21.564C95.256 24.48 91.62 26.064 87.228 26.064C79.416 26.064 73.584 20.628 73.584 13.032C73.584 5.436 79.416 0 87.264 0C91.62 0 95.256 1.584 97.632 4.464L93.888 7.92C92.196 5.976 90.072 4.968 87.552 4.968C82.836 4.968 79.488 8.28 79.488 13.032C79.488 17.784 82.836 21.096 87.552 21.096C90.072 21.096 92.196 20.088 93.888 18.108L97.632 21.564ZM5.832 18.684V25.632H0V0.432H10.908C17.64 0.432 21.852 3.924 21.852 9.576C21.852 15.192 17.64 18.684 10.908 18.684H5.832ZM5.832 13.932H10.584C14.148 13.932 15.948 12.312 15.948 9.576C15.948 6.804 14.148 5.184 10.584 5.184H5.832V13.932ZM44.46 25.632V20.88H31.824V0.432H25.992V25.632H44.46ZM52.848 20.232L50.616 25.632H44.64L55.872 0.432H61.632L72.9 25.632H66.78L64.548 20.232H52.848ZM62.712 15.804H54.72L58.716 6.156L62.712 15.804ZM121.068 25.632V20.952H107.352V15.12H119.052V10.584H107.352V5.112H120.6V0.432H101.556V25.632H121.068ZM144.684 18.252C144.684 22.464 141.192 26.064 133.992 26.064C129.996 26.064 125.964 24.876 123.732 23.148L125.712 18.756C127.836 20.304 131.004 21.384 134.028 21.384C137.484 21.384 138.888 20.232 138.888 18.684C138.888 16.7262 136.363 16.1395 133.409 15.4533C129.248 14.4866 124.236 13.3223 124.236 7.848C124.236 3.564 127.692 0 134.856 0C138.024 0 141.264 0.756 143.604 2.232L141.804 6.66C139.464 5.328 137.052 4.68 134.82 4.68C131.364 4.68 130.032 5.976 130.032 7.56C130.032 9.4858 132.552 10.062 135.501 10.7366C139.664 11.6887 144.684 12.8367 144.684 18.252Z" fill="#312D3F"/>
</svg>
