<svg width="114" height="26" viewBox="0 0 114 26" fill="none" xmlns="http://www.w3.org/2000/svg">
<path fill-rule="evenodd" clip-rule="evenodd" d="M5.832 18.252V25.2H0V0H10.908C17.64 0 21.852 3.492 21.852 9.144C21.852 14.76 17.64 18.252 10.908 18.252H5.832ZM5.832 13.5H10.584C14.148 13.5 15.948 11.88 15.948 9.144C15.948 6.372 14.148 4.752 10.584 4.752H5.832V13.5ZM31.824 25.2V18.18H37.188L42.048 25.2H48.312L42.66 17.1C45.936 15.696 47.844 12.924 47.844 9.144C47.844 3.492 43.632 0 36.9 0H25.992V25.2H31.824ZM31.824 13.536H36.576C40.14 13.536 41.94 11.88 41.94 9.144C41.94 6.372 40.14 4.752 36.576 4.752H31.824V13.536ZM58.284 25.2V0H52.452V25.2H58.284ZM89.604 12.6C89.604 20.232 83.952 25.2 75.708 25.2H64.26V0H75.708C83.952 0 89.604 4.968 89.604 12.6ZM75.42 20.412H70.092V4.788H75.42C80.424 4.788 83.7 7.776 83.7 12.6C83.7 17.424 80.424 20.412 75.42 20.412ZM113.508 20.52V25.2H93.996V0H113.04V4.68H99.792V10.152H111.492V14.688H99.792V20.52H113.508Z" fill="#312D3F"/>
</svg>
