<svg width="48" height="48" viewBox="0 0 48 48" fill="none" xmlns="http://www.w3.org/2000/svg">
<path id="icon/Claim" fill-rule="evenodd" clip-rule="evenodd" d="M44.7581 12C46.9194 15.6774 48 19.6774 48 24C48 28.3226 46.9194 32.3226 44.7581 36C42.5968 39.6774 39.6774 42.5968 36 44.7581C32.3226 46.9194 28.3226 48 24 48C19.6774 48 15.6774 46.9194 12 44.7581C8.32258 42.5968 5.40323 39.6774 3.24194 36C1.08065 32.3226 0 28.3226 0 24C0 19.6774 1.08065 15.6774 3.24194 12C5.40323 8.32258 8.32258 5.40323 12 3.24194C15.6774 1.08065 19.6774 0 24 0C28.3226 0 32.3226 1.08065 36 3.24194C39.6774 5.40323 42.5968 8.32258 44.7581 12ZM21.1935 36.6774L39.2117 18.6593C39.3931 18.4294 39.4839 18.1452 39.4839 17.8065C39.4839 17.3548 39.3226 17 39 16.7419L36.871 14.5161C36.5484 14.1935 36.1774 14.0323 35.7581 14.0323C35.3387 14.0323 34.9677 14.1935 34.6452 14.5161L20.129 29.0323L13.3548 22.2581C13.0323 21.9355 12.6613 21.7742 12.2419 21.7742C11.8226 21.7742 11.4516 21.9355 11.129 22.2581L9 24.4839C8.67742 24.7419 8.51613 25.0968 8.51613 25.5484C8.51613 26 8.67742 26.3548 9 26.6129L19.2762 36.8891C19.506 37.0706 19.7903 37.1613 20.129 37.1613C20.5806 37.1613 20.9355 37 21.1935 36.6774Z" fill="#A00DA7"/>
</svg>
