<svg width="93" height="93" viewBox="0 0 93 93" fill="none" xmlns="http://www.w3.org/2000/svg">
<g id="real-estate-white">
<path id="Shape" fill-rule="evenodd" clip-rule="evenodd" d="M23.25 11.625H90.0938C91.6922 11.625 93 12.9328 93 14.5312V20.3438C93 21.9422 91.6922 23.25 90.0938 23.25H23.25V90.0938C23.25 91.6922 21.9422 93 20.3438 93H14.5312C12.9328 93 11.625 91.6922 11.625 90.0938V23.25H2.90625C1.30781 23.25 0 21.9422 0 20.3438V14.5312C0 12.9328 1.30781 11.625 2.90625 11.625H11.625V2.90625C11.625 1.30781 12.9328 0 14.5312 0H20.3438C21.9422 0 23.25 1.30781 23.25 2.90625V11.625ZM87.1875 69.75H29.0625V29.0625H87.1875V69.75Z" fill="white"/>
</g>
</svg>
