<svg width="93" height="93" viewBox="0 0 93 93" fill="none" xmlns="http://www.w3.org/2000/svg">
<g id="stethoscope-white">
<path id="Shape" fill-rule="evenodd" clip-rule="evenodd" d="M69.7682 31.7145C69.8953 25.5024 74.9994 20.4346 81.2115 20.3438C87.6961 20.253 93 25.4842 93 31.9688C93 36.2737 90.6568 40.0155 87.1875 42.0317V62.4844C87.1875 79.3044 72.8379 93.0001 55.2188 93.0001C37.8902 93.0001 23.7404 79.7766 23.2682 63.3563C10.0084 60.668 0 48.9159 0 34.8751V6.6481C0 4.55923 1.47129 2.77915 3.50566 2.36138L14.9127 0.109036C17.274 -0.36323 19.5627 1.16255 20.035 3.52388L20.598 6.37564C21.0703 8.73697 19.5445 11.0256 17.1832 11.4979L11.6068 12.6059V34.8569C11.6068 44.5383 19.5082 52.3852 29.2078 52.2944C38.8166 52.2036 46.4818 44.2477 46.4818 34.6389V12.5877L40.9055 11.4797C38.5441 11.0075 37.0184 8.7188 37.4906 6.35747L38.0719 3.50572C38.5441 1.14439 40.8328 -0.381394 43.1941 0.090872L54.6193 2.37954C56.6537 2.77915 58.125 4.57739 58.125 6.6481V34.8751C58.125 48.8977 48.1348 60.6317 34.9113 63.3563C35.4018 73.3647 44.3385 81.3751 55.2369 81.3751C66.4623 81.3751 75.5807 72.8924 75.5807 62.4844V42.0317C72.0387 39.9973 69.6773 36.1284 69.7682 31.7145ZM78.4688 31.9688C78.4688 33.5672 79.7766 34.8751 81.375 34.8751C82.9734 34.8751 84.2812 33.5672 84.2812 31.9688C84.2812 30.3704 82.9734 29.0626 81.375 29.0626C79.7766 29.0626 78.4688 30.3704 78.4688 31.9688Z" fill="white"/>
</g>
</svg>
