<svg width="75" height="93" viewBox="0 0 75 93" fill="none" xmlns="http://www.w3.org/2000/svg">
<g id="utensils-white">
<path id="Shape" fill-rule="evenodd" clip-rule="evenodd" d="M37.4831 2.76773L37.482 2.76119C36.905 -0.926105 29.2969 -0.962433 28.8281 2.96099V28.6086C28.6118 29.2262 26.1058 29.1898 25.9435 28.6086C25.6911 24.0131 24.5373 3.34244 24.5012 2.85201C23.9243 -0.926105 16.4603 -0.926105 15.8654 2.85201C15.8557 3.10643 15.5111 9.22819 15.1558 15.5402C14.8516 20.9448 14.5395 26.4888 14.4231 28.6086C14.2608 29.1898 11.7728 29.2262 11.5385 28.6086V2.96099C11.0697 -0.980597 3.47957 -0.926105 2.90264 2.76119L2.90031 2.775C2.73116 3.77602 0 19.939 0 26.1564C0 35.638 4.99399 42.4314 12.4219 45.156L10.0962 88.4045C9.96995 90.9111 11.9531 93 14.4231 93H25.9615C28.4495 93 30.4147 90.893 30.2885 88.4045L27.9627 45.156C35.3726 42.4314 40.3846 35.6562 40.3846 26.1564C40.3846 19.9414 37.6397 3.69468 37.4831 2.76773ZM56.268 88.2774L58.9724 54.6558C30.7572 32.423 55.7993 0.000259525 70.6731 0.000259525C73.0709 0.000259525 75 1.96197 75 4.35962V88.6406C75 91.0564 73.0709 93 70.6731 93H60.5769C58.0529 93 56.0517 90.8203 56.268 88.2774Z" fill="white"/>
</g>
</svg>
