<svg width="96" height="93" viewBox="0 0 96 93" fill="none" xmlns="http://www.w3.org/2000/svg">
<g id="Virus-white">
<g id="virus-white">
<path id="Shape" fill-rule="evenodd" clip-rule="evenodd" d="M87.837 41.433H83.9357C74.7481 41.433 70.1452 30.3256 76.6425 23.8283L79.4035 21.0637C81.2957 19.0319 81.2392 15.8667 79.2758 13.9037C77.3123 11.9407 74.1471 11.885 72.1158 13.7777L69.353 16.5369C62.8557 23.0324 51.7482 18.4314 51.7482 9.24377V5.33705C51.7482 2.48858 49.4391 0.179443 46.5906 0.179443C43.7422 0.179443 41.433 2.48858 41.433 5.33705V9.24558C41.433 18.4332 30.3256 23.0342 23.8283 16.5387L21.0655 13.7777C19.0342 11.885 15.869 11.9407 13.9055 13.9037C11.942 15.8667 11.8856 19.0319 13.7778 21.0637L16.5424 23.8283C23.0397 30.3256 18.4368 41.433 9.24924 41.433H5.33889C3.47353 41.398 1.73471 42.3732 0.791786 43.983C-0.151136 45.5929 -0.151136 47.5865 0.791786 49.1964C1.73471 50.8062 3.47353 51.7814 5.33889 51.7464H9.24561C18.4332 51.7464 23.0361 62.8556 16.5388 69.353L13.7778 72.1158C11.9047 74.1504 11.9698 77.3003 13.9254 79.2559C15.8809 81.2114 19.0308 81.2765 21.0655 79.4035L23.8283 76.6389C30.3256 70.1415 41.433 74.7444 41.433 83.932V87.8369C41.433 90.6854 43.7422 92.9945 46.5906 92.9945C49.4391 92.9945 51.7482 90.6854 51.7482 87.8369V83.9356C51.7482 74.748 62.8557 70.1452 69.353 76.6425L72.1158 79.4035C74.1505 81.2765 77.3004 81.2114 79.2559 79.2559C81.2114 77.3003 81.2766 74.1504 79.4035 72.1158L76.6389 69.353C70.1416 62.8556 74.7444 51.7464 83.932 51.7464H87.837C89.7023 51.7814 91.4411 50.8062 92.3841 49.1964C93.327 47.5865 93.327 45.5929 92.3841 43.983C91.4411 42.3732 89.7023 41.398 87.837 41.433ZM40.7895 49.4912C35.9836 49.4912 32.0877 45.5953 32.0877 40.7894C32.0877 35.9836 35.9836 32.0877 40.7895 32.0877C45.5953 32.0877 49.4912 35.9836 49.4912 40.7894C49.4912 45.5953 45.5953 49.4912 40.7895 49.4912ZM50.9415 55.2924C50.9415 57.6953 52.8895 59.6432 55.2924 59.6432C57.6953 59.6432 59.6433 57.6953 59.6433 55.2924C59.6433 52.8894 57.6953 50.9415 55.2924 50.9415C52.8895 50.9415 50.9415 52.8894 50.9415 55.2924Z" fill="white"/>
</g>
</g>
</svg>
